<svg width="24" height="24" viewBox="0 0 24 24" fill="none" xmlns="http://www.w3.org/2000/svg">
<path fill-rule="evenodd" clip-rule="evenodd" d="M23 1H1V23H23V1ZM0 0V24H24V0H0Z" fill="black"/>
<path fill-rule="evenodd" clip-rule="evenodd" d="M20 4H4V7H20V4ZM3 3V8H21V3H3Z" fill="black"/>
<path fill-rule="evenodd" clip-rule="evenodd" d="M20 11H16V20H20V11ZM15 10V21H21V10H15Z" fill="black"/>
<path fill-rule="evenodd" clip-rule="evenodd" d="M5 11H4V12H5V11ZM3 10V13H6V10H3Z" fill="black"/>
<path fill-rule="evenodd" clip-rule="evenodd" d="M5 15H4V16H5V15ZM3 14V17H6V14H3Z" fill="black"/>
<path fill-rule="evenodd" clip-rule="evenodd" d="M5 19H4V20H5V19ZM3 18V21H6V18H3Z" fill="black"/>
<path fill-rule="evenodd" clip-rule="evenodd" d="M9 11H8V12H9V11ZM7 10V13H10V10H7Z" fill="black"/>
<path fill-rule="evenodd" clip-rule="evenodd" d="M9 15H8V16H9V15ZM7 14V17H10V14H7Z" fill="black"/>
<path fill-rule="evenodd" clip-rule="evenodd" d="M9 19H8V20H9V19ZM7 18V21H10V18H7Z" fill="black"/>
<path fill-rule="evenodd" clip-rule="evenodd" d="M13 11H12V12H13V11ZM11 10V13H14V10H11Z" fill="black"/>
<path fill-rule="evenodd" clip-rule="evenodd" d="M13 15H12V16H13V15ZM11 14V17H14V14H11Z" fill="black"/>
<path fill-rule="evenodd" clip-rule="evenodd" d="M13 19H12V20H13V19ZM11 18V21H14V18H11Z" fill="black"/>
<g clip-path="url(#clip0_2645_5074)">
<path d="M17.4977 15.857C17.4795 15.857 17.4617 15.851 17.4472 15.84C17.4327 15.8289 17.4223 15.8135 17.4174 15.7959C17.4125 15.7783 17.4135 15.7597 17.4203 15.7428C17.427 15.7258 17.4391 15.7116 17.4547 15.7022C17.75 15.5249 17.75 15.144 17.75 14.9165C17.75 14.8502 17.7763 14.7867 17.8232 14.7398C17.8701 14.6929 17.9337 14.6665 18 14.6665C18.0663 14.6665 18.1299 14.6929 18.1768 14.7398C18.2237 14.7867 18.25 14.8502 18.25 14.9165C18.25 14.9387 18.2412 14.9598 18.2256 14.9755C18.21 14.9911 18.1888 14.9999 18.1667 14.9999C18.1446 14.9999 18.1234 14.9911 18.1077 14.9755C18.0921 14.9598 18.0833 14.9387 18.0833 14.9165C18.0833 14.8944 18.0746 14.8733 18.0589 14.8576C18.0433 14.842 18.0221 14.8332 18 14.8332C17.9779 14.8332 17.9567 14.842 17.9411 14.8576C17.9254 14.8733 17.9167 14.8944 17.9167 14.9165C17.9167 15.1621 17.9167 15.6194 17.5405 15.8451C17.5276 15.8529 17.5128 15.857 17.4977 15.857ZM17.9112 15.9754C18.1014 15.7837 18.2125 15.5142 18.2413 15.1736C18.2423 15.1627 18.2411 15.1517 18.2378 15.1412C18.2345 15.1308 18.2292 15.1211 18.2221 15.1127C18.2151 15.1043 18.2065 15.0973 18.1967 15.0923C18.187 15.0872 18.1763 15.0841 18.1654 15.0832C18.1545 15.0821 18.1434 15.0832 18.1329 15.0864C18.1224 15.0897 18.1127 15.095 18.1043 15.1021C18.0959 15.1091 18.089 15.1179 18.084 15.1277C18.079 15.1375 18.0761 15.1482 18.0753 15.1591C18.0494 15.4639 17.9571 15.6925 17.793 15.8575C17.7774 15.8732 17.7687 15.8945 17.7688 15.9166C17.7688 15.9387 17.7777 15.9598 17.7934 15.9754C17.8091 15.991 17.8303 15.9997 17.8524 15.9996C17.8745 15.9996 17.8957 15.9907 17.9112 15.975V15.9754ZM18.3446 15.9599C18.3951 15.8759 18.4372 15.7871 18.4702 15.6948C18.4772 15.6742 18.4757 15.6516 18.4662 15.632C18.4567 15.6125 18.44 15.5974 18.4195 15.59C18.399 15.5826 18.3764 15.5835 18.3566 15.5925C18.3368 15.6016 18.3214 15.618 18.3135 15.6383C18.2842 15.7201 18.2468 15.7989 18.202 15.8734C18.1963 15.8827 18.1925 15.8931 18.1909 15.904C18.1892 15.9148 18.1897 15.9258 18.1923 15.9365C18.1949 15.9471 18.1996 15.9571 18.2061 15.9659C18.2125 15.9748 18.2207 15.9822 18.23 15.9879C18.2489 15.9994 18.2716 16.0029 18.2931 15.9976C18.3038 15.995 18.3138 15.9903 18.3226 15.9839C18.3314 15.9774 18.3389 15.9692 18.3446 15.9599ZM18.5417 15.4325C18.5725 15.2623 18.5865 15.0895 18.5833 14.9165C18.5833 14.7985 18.5474 14.6832 18.4804 14.586C18.4134 14.4888 18.3185 14.4142 18.2082 14.372C18.0979 14.3299 17.9775 14.3222 17.8627 14.35C17.748 14.3778 17.6444 14.4397 17.5656 14.5276C17.5579 14.5357 17.5519 14.5453 17.548 14.5557C17.5441 14.5661 17.5423 14.5772 17.5428 14.5884C17.5432 14.5995 17.5459 14.6104 17.5506 14.6205C17.5554 14.6306 17.5621 14.6396 17.5704 14.6471C17.5787 14.6545 17.5884 14.6602 17.599 14.6638C17.6095 14.6674 17.6207 14.6689 17.6318 14.6681C17.6429 14.6674 17.6538 14.6644 17.6637 14.6593C17.6736 14.6543 17.6825 14.6473 17.6897 14.6388C17.7459 14.576 17.8199 14.5317 17.9019 14.5119C17.9839 14.492 18.0699 14.4975 18.1487 14.5276C18.2275 14.5577 18.2953 14.611 18.3431 14.6804C18.391 14.7499 18.4166 14.8322 18.4167 14.9165C18.4197 15.0788 18.4068 15.2409 18.3782 15.4006C18.374 15.4223 18.3785 15.4448 18.3909 15.4631C18.4032 15.4814 18.4223 15.4941 18.444 15.4983C18.4493 15.4994 18.4547 15.4999 18.4601 15.4999C18.4794 15.4998 18.4981 15.4931 18.513 15.4808C18.5278 15.4685 18.538 15.4514 18.5417 15.4325ZM17.5833 14.9165C17.5833 14.8933 17.5852 14.8701 17.5891 14.8471C17.5916 14.8361 17.5918 14.8247 17.5897 14.8135C17.5876 14.8024 17.5833 14.7918 17.577 14.7824C17.5707 14.773 17.5626 14.765 17.553 14.7588C17.5435 14.7527 17.5329 14.7485 17.5217 14.7467C17.5106 14.7448 17.4991 14.7452 17.4881 14.7478C17.4771 14.7505 17.4668 14.7554 17.4577 14.7622C17.4487 14.769 17.4411 14.7775 17.4355 14.7874C17.4299 14.7972 17.4263 14.8081 17.425 14.8193C17.4195 14.8514 17.4167 14.884 17.4167 14.9165C17.4167 15.3036 17.3045 15.4999 17.0833 15.4999C17.0612 15.4999 17.04 15.5087 17.0244 15.5243C17.0088 15.5399 17 15.5611 17 15.5832C17 15.6053 17.0088 15.6265 17.0244 15.6421C17.04 15.6578 17.0612 15.6665 17.0833 15.6665C17.4057 15.6665 17.5833 15.3999 17.5833 14.9165ZM18.725 15.951C18.8621 15.6239 18.9275 15.2711 18.9167 14.9165C18.9171 14.7781 18.8857 14.6415 18.825 14.517C18.8202 14.5072 18.8135 14.4984 18.8053 14.4911C18.7971 14.4839 18.7876 14.4783 18.7773 14.4747C18.7669 14.4711 18.7559 14.4696 18.745 14.4703C18.7341 14.4709 18.7234 14.4737 18.7135 14.4785C18.7037 14.4833 18.6949 14.49 18.6876 14.4982C18.6803 14.5064 18.6748 14.5159 18.6712 14.5263C18.6676 14.5366 18.6661 14.5476 18.6668 14.5585C18.6674 14.5694 18.6702 14.5801 18.675 14.59C18.7246 14.6917 18.7502 14.8034 18.75 14.9165C18.7605 15.2473 18.7003 15.5764 18.5734 15.882C18.5689 15.892 18.5664 15.9028 18.566 15.9137C18.5657 15.9247 18.5675 15.9356 18.5714 15.9459C18.5752 15.9561 18.5811 15.9655 18.5886 15.9735C18.5961 15.9815 18.6051 15.9879 18.6151 15.9924C18.6259 15.9973 18.6376 15.9999 18.6495 15.9999C18.6654 15.9998 18.681 15.9952 18.6944 15.9865C18.7078 15.9779 18.7184 15.9656 18.725 15.951ZM17.25 15.1665V14.9165C17.2502 14.7177 17.3293 14.5271 17.4699 14.3865C17.6105 14.2459 17.8012 14.1668 18 14.1665C18.1624 14.166 18.3204 14.2187 18.45 14.3165C18.4677 14.3298 18.4899 14.3355 18.5118 14.3324C18.5337 14.3293 18.5534 14.3176 18.5667 14.2999C18.5799 14.2822 18.5856 14.26 18.5825 14.2381C18.5794 14.2162 18.5677 14.1965 18.55 14.1832C18.3916 14.0637 18.1984 13.9993 18 13.9999C17.757 14.0002 17.524 14.0968 17.3521 14.2687C17.1803 14.4405 17.0836 14.6735 17.0833 14.9165V15.1665C17.0833 15.1887 17.0921 15.2098 17.1077 15.2255C17.1234 15.2411 17.1446 15.2499 17.1667 15.2499C17.1888 15.2499 17.21 15.2411 17.2256 15.2255C17.2412 15.2098 17.25 15.1887 17.25 15.1665Z" fill="black"/>
</g>
<defs>
<clipPath id="clip0_2645_5074">
<rect width="2" height="2" fill="white" transform="translate(17 14)"/>
</clipPath>
</defs>
</svg>
