<svg width="24" height="24" viewBox="0 0 24 24" fill="none" xmlns="http://www.w3.org/2000/svg">
<path d="M7.07632 8.20503C6.86565 8.41596 6.74731 8.7019 6.74731 9.00003C6.74731 9.29815 6.86565 9.58409 7.07632 9.79503C7.18091 9.90047 7.30533 9.98417 7.44243 10.0413C7.57952 10.0984 7.72656 10.1278 7.87507 10.1278C8.02359 10.1278 8.17063 10.0984 8.30772 10.0413C8.44481 9.98417 8.56924 9.90047 8.67382 9.79503C8.8845 9.58409 9.00283 9.29815 9.00283 9.00003C9.00283 8.7019 8.8845 8.41596 8.67382 8.20503C8.56924 8.09958 8.44481 8.01589 8.30772 7.95877C8.17063 7.90166 8.02359 7.87225 7.87507 7.87225C7.72656 7.87225 7.57952 7.90166 7.44243 7.95877C7.30533 8.01589 7.18091 8.09958 7.07632 8.20503V8.20503ZM8.14882 9.26253C8.11375 9.29999 8.07135 9.32986 8.02426 9.35028C7.97718 9.3707 7.9264 9.38123 7.87507 9.38123C7.82375 9.38123 7.77297 9.3707 7.72588 9.35028C7.6788 9.32986 7.6364 9.29999 7.60132 9.26253C7.53261 9.19243 7.49413 9.09818 7.49413 9.00003C7.49413 8.90187 7.53261 8.80762 7.60132 8.73753C7.6364 8.70006 7.6788 8.67019 7.72588 8.64977C7.77297 8.62935 7.82375 8.61882 7.87507 8.61882C7.9264 8.61882 7.97718 8.62935 8.02426 8.64977C8.07135 8.67019 8.11375 8.70006 8.14882 8.73753C8.21753 8.80762 8.25602 8.90187 8.25602 9.00003C8.25602 9.09818 8.21753 9.19243 8.14882 9.26253V9.26253Z" fill="#9EAEC5"/>
<path d="M6 7.14377L6.52875 7.67627C6.88611 7.32269 7.36853 7.12436 7.87125 7.12436C8.37397 7.12436 8.85639 7.32269 9.21375 7.67627L9.75 7.14377C9.25132 6.64913 8.57739 6.37158 7.875 6.37158C7.17261 6.37158 6.49868 6.64913 6 7.14377V7.14377Z" fill="#9EAEC5"/>
<path d="M4.93115 6.08249L5.4599 6.61499C6.1034 5.98017 6.97098 5.62425 7.8749 5.62425C8.77883 5.62425 9.64641 5.98017 10.2899 6.61499L10.8187 6.08249C10.0342 5.30888 8.97667 4.87518 7.8749 4.87518C6.77313 4.87518 5.71565 5.30888 4.93115 6.08249V6.08249Z" fill="#9EAEC5"/>
<path d="M11.3626 5.55373L11.8876 5.02123C10.8173 3.96865 9.37621 3.37878 7.87505 3.37878C6.3739 3.37878 4.93285 3.96865 3.86255 5.02123L4.38755 5.55373C5.31812 4.63946 6.5705 4.12718 7.87505 4.12718C9.1796 4.12718 10.432 4.63946 11.3626 5.55373V5.55373Z" fill="#9EAEC5"/>
<path d="M11.25 12.375H12V15.375H11.25V12.375Z" fill="#9EAEC5"/>
<path d="M23.25 10.5H15V0.75C15 0.650544 14.9605 0.555161 14.8902 0.484835C14.8198 0.414509 14.7245 0.375 14.625 0.375H1.125C1.02554 0.375 0.930161 0.414509 0.859835 0.484835C0.789509 0.555161 0.75 0.650544 0.75 0.75V22.875H0.375V23.625H15.375V22.875H15V17.25H23.25C23.3495 17.25 23.4448 17.2105 23.5152 17.1402C23.5855 17.0698 23.625 16.9745 23.625 16.875V10.875C23.625 10.7755 23.5855 10.6802 23.5152 10.6098C23.4448 10.5395 23.3495 10.5 23.25 10.5ZM12.75 22.875H3V2.625H12.75V22.875ZM14.25 22.875H13.5V2.25C13.5 2.15054 13.4605 2.05516 13.3902 1.98484C13.3198 1.91451 13.2245 1.875 13.125 1.875H2.625C2.52554 1.875 2.43016 1.91451 2.35984 1.98484C2.28951 2.05516 2.25 2.15054 2.25 2.25V22.875H1.5V1.125H14.25V22.875ZM22.875 16.5H15V11.25H22.875V16.5Z" fill="#9EAEC5"/>
<path d="M16.5 14.25H17.25V14.625H18V14.25H19.9425C20.031 14.5002 20.205 14.7111 20.4339 14.8454C20.6628 14.9796 20.9318 15.0287 21.1934 14.9838C21.455 14.9389 21.6922 14.803 21.8633 14.6001C22.0343 14.3972 22.1282 14.1404 22.1282 13.875C22.1282 13.6096 22.0343 13.3528 21.8633 13.1499C21.6922 12.947 21.455 12.8111 21.1934 12.7662C20.9318 12.7213 20.6628 12.7704 20.4339 12.9046C20.205 13.0389 20.031 13.2498 19.9425 13.5H16.125C16.0255 13.5 15.9302 13.5395 15.8598 13.6098C15.7895 13.6802 15.75 13.7755 15.75 13.875V15H16.5V14.25ZM21 13.5C21.0742 13.5 21.1467 13.522 21.2083 13.5632C21.27 13.6044 21.3181 13.663 21.3465 13.7315C21.3748 13.8 21.3823 13.8754 21.3678 13.9482C21.3533 14.0209 21.3176 14.0877 21.2652 14.1402C21.2127 14.1926 21.1459 14.2283 21.0732 14.2428C21.0004 14.2573 20.925 14.2498 20.8565 14.2215C20.788 14.1931 20.7294 14.145 20.6882 14.0833C20.647 14.0217 20.625 13.9492 20.625 13.875C20.625 13.7755 20.6645 13.6802 20.7348 13.6098C20.8052 13.5395 20.9005 13.5 21 13.5Z" fill="#9EAEC5"/>
</svg>
