<svg width="24" height="24" viewBox="0 0 24 24" fill="none" xmlns="http://www.w3.org/2000/svg">
<path d="M23 5V3C23 1.89543 22.1046 1 21 1H19M23 19V21C23 22.1046 22.1046 23 21 23H19M5 1H3C1.89543 1 1 1.89543 1 3V5M1 19V21C1 22.1046 1.89543 23 3 23H5" stroke="#9EAEC5"/>
<path fill-rule="evenodd" clip-rule="evenodd" d="M12.2846 5H11.7155C9.8633 5 8.4536 6.66183 8.75565 8.48923L9.28598 11.6977C9.5055 13.0258 10.6539 14 12.0001 14C13.3462 14 14.4946 13.0258 14.7141 11.6977L15.2445 8.48923C15.5465 6.66183 14.1368 5 12.2846 5ZM11.7155 4C9.2459 4 7.3663 6.21578 7.76904 8.6523L8.29936 11.8608C8.44339 12.7321 8.88064 13.4917 9.50006 14.0454V17.1556L5.72968 19.5794C5.4974 19.7287 5.43015 20.0381 5.57947 20.2704C5.7288 20.5027 6.03815 20.5699 6.27044 20.4206L10.2704 17.8492L10.5001 17.7015V17.4286V14.6875C10.9615 14.889 11.4695 15 12.0001 15C12.5306 15 13.0386 14.889 13.5001 14.6875V17.5V17.7771L13.7351 17.924L17.7351 20.424C17.9692 20.5704 18.2777 20.4992 18.4241 20.265C18.5704 20.0308 18.4992 19.7224 18.2651 19.576L14.5001 17.2229V14.0454C15.1195 13.4917 15.5567 12.7321 15.7008 11.8608L16.2311 8.65231C16.6338 6.21578 14.7542 4 12.2846 4H11.7155Z" fill="#9EAEC5"/>
</svg>
