<svg width="24" height="24" viewBox="0 0 24 24" fill="none" xmlns="http://www.w3.org/2000/svg">
<path fill-rule="evenodd" clip-rule="evenodd" d="M16 12C16 14.2092 14.2092 16 12 16C9.79082 16 8 14.2092 8 12C8 9.79082 9.79082 8 12 8C14.2092 8 16 9.79082 16 12ZM15 12C15 13.6569 13.6569 15 12 15C10.3431 15 9 13.6569 9 12C9 10.3431 10.3431 9 12 9C13.6569 9 15 10.3431 15 12Z" fill="black"/>
<path fill-rule="evenodd" clip-rule="evenodd" d="M20.8 5.4L19.1772 7.31928L20.3846 10.2349L23 10.9L22.9999 13.0749L20.3753 13.7578L19.1675 16.6743L20.8 18.6L18.6 20.8C18.6 20.8 17.1666 19.5144 16.6806 19.167L13.7649 20.3745L13.1 23H10.9L10.2367 20.3735L7.37028 19.1943L5.4 20.8L3.2 18.6L4.86732 16.7297L3.64122 13.8211L1 13.1V10.9L3.60975 10.2909L4.79871 7.36773L3.2 5.4L5.4 3.2L7.27485 4.86756L10.184 3.64124L10.8791 1H13.0288L13.7136 3.60671L16.6912 4.83125L18.6 3.2L20.8 5.4ZM16.5062 3.67391L17.9503 2.43978C18.3471 2.10068 18.938 2.12381 19.3071 2.49289L21.5071 4.69289C21.8748 5.06055 21.8993 5.64863 21.5636 6.04567L20.3342 7.49964L21.1168 9.38929L23.2464 9.93084C23.6897 10.0436 24 10.4427 24 10.9001L23.9999 13.075C23.9999 13.5303 23.6923 13.9281 23.2517 14.0427L21.1088 14.6003L20.3249 16.4932L21.5628 17.9533C21.8993 18.3503 21.8751 18.9391 21.5071 19.3071L19.3071 21.5071C18.9315 21.8827 18.3278 21.8991 17.9323 21.5445L17.8716 21.4901C17.8321 21.4549 17.775 21.404 17.7048 21.3418C17.5644 21.2172 17.3725 21.0478 17.166 20.8681C16.9413 20.6724 16.7139 20.4775 16.5201 20.3159L14.6112 21.1064L14.0694 23.2455C13.957 23.6892 13.5577 24 13.1 24H10.9C10.442 24 10.0426 23.6889 9.93044 23.2449L9.39047 21.1067L7.54046 20.3457L6.03173 21.5752C5.63406 21.8993 5.05564 21.8699 4.69289 21.5071L2.49289 19.3071C2.11811 18.9323 2.10084 18.3302 2.45354 17.9346L3.70042 16.5359L2.90867 14.6577L0.736639 14.0647C0.301698 13.946 0 13.5509 0 13.1V10.9C0 10.4353 0.320158 10.0318 0.772725 9.92617L2.87844 9.43473L3.64947 7.53907L2.42387 6.03057C2.10074 5.63286 2.13055 5.05524 2.49289 4.69289L4.69289 2.49289C5.06737 2.11841 5.66888 2.10083 6.06459 2.45279L7.46792 3.70096L9.34216 2.9109L9.91203 0.745498C10.0276 0.306189 10.4248 0 10.8791 0H13.0288C13.4833 0 13.8806 0.30641 13.996 0.745932L14.5543 2.8712L16.5062 3.67391Z" fill="black"/>
</svg>
