<svg width="216" height="246" viewBox="0 0 216 246" fill="none" xmlns="http://www.w3.org/2000/svg">
<g clip-path="url(#clip0_1206_1863)">
<path d="M81 117L96.6317 95.6665H127.326L147 118.5C147 118.5 141.373 170.926 117.095 173.111C91.1448 175.446 81 117 81 117Z" fill="#F2B78C"/>
<path d="M111.758 111.138C133.01 111.138 150.238 93.8789 150.238 72.589C150.238 51.299 133.01 34.04 111.758 34.04C90.5067 34.04 73.2788 51.299 73.2788 72.589C73.2788 93.8789 90.5067 111.138 111.758 111.138Z" fill="#FFC69D"/>
<path d="M178.712 142.003H194.023C195.148 142.002 196.24 142.385 197.119 143.089C197.998 143.793 198.611 144.775 198.858 145.875C201.221 156.356 207.31 186.066 206.197 209.463C204.823 238.375 202.075 283.808 202.075 287.938C202.075 292.068 188.332 355.399 188.332 355.399C188.332 355.399 178.884 339.843 168.491 342.802L170.466 286.561L173.215 263.157L169.092 221.854L178.712 142.003Z" fill="#29B85D"/>
<path d="M81 117C81 117 35.997 129.233 30.5 143C53 218.808 57.5 250 57.5 250C57.5 250 57.5 272.5 57.5 280.5C51.2615 300.183 77.4027 352.035 104.888 342.398C121.92 336.48 153.421 345.567 171.153 342.32C171.153 342.32 173.902 305.148 171.153 298.264C168.405 291.38 161.534 295.51 165.656 285.873C169.779 276.236 168.405 274.859 167.031 270.729C165.656 266.599 169.779 261.092 169.779 255.585C169.779 250.078 168.405 237.687 168.405 237.687C168.405 237.687 205.51 150.952 197.265 142.692C189.019 134.431 147 118.5 147 118.5C147 118.5 141.453 134.847 108 133.82C84.6947 130.973 81 117 81 117Z" fill="#29B85D"/>
<path d="M41.7311 134L36.8504 136.445C34.9506 137.396 33.2963 138.776 32.0172 140.474C30.7381 142.173 29.8688 144.146 29.4773 146.237C29.4773 146.237 21.0458 170.239 19 190.5C16.9542 210.761 19 250 19 250L6 347.396C6 347.396 29.3626 340.512 36.234 347.396C36.234 347.396 29.3626 326.745 33.4855 319.861C37.6083 312.977 37.6083 303.34 37.6083 303.34C37.6083 303.34 34.8597 303.34 41.7311 296.456C48.6025 289.572 49.9767 286.819 48.6025 285.442C47.2283 284.066 50.5 272.377 50.5 271C50.5 269.623 59.5966 176.679 59.5966 176.679L41.7311 134Z" fill="#29B85D"/>
<path d="M75.4903 85.575C73.7314 81.2503 73.4486 76.4646 74.6857 71.9623C77.8287 80.3141 84.0736 77.7648 87.2556 73.848C91.2463 68.9364 90.0972 57.5933 96.3979 57.0858C102.699 56.5782 108.999 57.7727 115.208 58.9619C114.179 57.1973 113.15 55.4327 112.122 53.668C116.613 53.9473 121.104 54.2265 125.595 54.5057C124.258 52.3016 122.921 50.0975 121.583 47.8934C127.689 50.0427 133.274 53.4567 137.974 57.9128C142.675 62.369 146.385 67.7673 148.864 73.7561C151.193 69.9786 152.644 65.7245 153.11 61.3089C153.575 56.8933 153.043 52.4294 151.552 48.2479C150.062 44.0663 147.651 40.2743 144.499 37.1529C141.347 34.0314 137.534 31.6605 133.343 30.2156C135.115 27.887 136.887 25.5584 138.658 23.2298L102.596 19.6649C102.506 17.9236 102.842 16.1866 103.573 14.6044C104.304 13.0221 105.409 11.6422 106.793 10.5842C102.07 9.51592 97.0617 11.1184 93.049 13.8312C89.0363 16.5441 85.8451 20.285 82.7071 23.9778C77.9559 29.5692 73.1473 35.2482 70.0373 41.8971C66.8472 48.9754 65.6683 56.7982 66.6304 64.5045C67.5925 72.2108 70.6583 79.5018 75.4903 85.575ZM75.9261 68.6112L75.9267 68.6091L75.9629 68.6027L75.9261 68.6112Z" fill="#2F2E41"/>
</g>
<defs>
<clipPath id="clip0_1206_1863">
<rect width="216" height="246" fill="white"/>
</clipPath>
</defs>
</svg>
