<svg width="48" height="48" viewBox="0 0 48 48" fill="none" xmlns="http://www.w3.org/2000/svg">
<path d="M6 6L42 42" stroke="#9EAEC5" stroke-width="2" stroke-linecap="round" stroke-linejoin="round"/>
<path d="M30 16H30.02" stroke="#9EAEC5" stroke-width="2" stroke-linecap="round" stroke-linejoin="round"/>
<path d="M16 8H34C35.5913 8 37.1174 8.63214 38.2426 9.75736C39.3679 10.8826 40 12.4087 40 14V32M38.242 38.244C37.1167 39.3686 35.5909 40.0002 34 40H14C12.4087 40 10.8826 39.3679 9.75736 38.2426C8.63214 37.1174 8 35.5913 8 34V14C8 12.334 8.68 10.826 9.776 9.738L38.242 38.244Z" stroke="#9EAEC5" stroke-width="2" stroke-linecap="round" stroke-linejoin="round"/>
<path d="M8 30.0001L16 22.0001C17.856 20.2141 20.144 20.2141 22 22.0001L32 32.0001" stroke="#9EAEC5" stroke-width="2" stroke-linecap="round" stroke-linejoin="round"/>
<path d="M32.6399 24.6798C33.7939 24.5618 34.9639 25.0038 35.9999 25.9998L39.9999 29.9998" stroke="#9EAEC5" stroke-width="2" stroke-linecap="round" stroke-linejoin="round"/>
</svg>
