<svg width="24" height="24" viewBox="0 0 24 24" fill="none" xmlns="http://www.w3.org/2000/svg">
<g clip-path="url(#clip0_2645_5171)">
<path fill-rule="evenodd" clip-rule="evenodd" d="M0.999902 25.1001C0.392389 25.1001 -0.100098 24.6076 -0.100098 24.0001V23.3501C-0.100098 20.2297 2.4295 17.7001 5.5499 17.7001C8.67032 17.7001 11.1999 20.2297 11.1999 23.3501V24.0001C11.1999 24.6076 10.7074 25.1001 10.0999 25.1001C9.49239 25.1001 8.9999 24.6076 8.9999 24.0001H10.0999V23.3501C10.0999 20.8372 8.0628 18.8001 5.5499 18.8001C3.03701 18.8001 0.999902 20.8372 0.999902 23.3501V24.0001H2.0999C2.0999 24.6076 1.60742 25.1001 0.999902 25.1001Z" fill="black"/>
<path fill-rule="evenodd" clip-rule="evenodd" d="M9.24985 14.6C9.24985 16.6435 7.59328 18.3 5.54985 18.3C3.50639 18.3 1.84985 16.6434 1.84985 14.6C1.84985 12.5566 3.5064 10.9 5.54985 10.9C7.59327 10.9 9.24985 12.5566 9.24985 14.6ZM8.14985 14.6C8.14985 16.0359 6.98577 17.2 5.54985 17.2C4.11391 17.2 2.94985 16.0359 2.94985 14.6C2.94985 13.1641 4.11391 12 5.54985 12C6.98577 12 8.14985 13.1641 8.14985 14.6Z" fill="black"/>
<path d="M11.2134 19.6039C13.1949 20.1788 15.3056 20.1268 17.2563 19.4549C19.207 18.7831 20.9022 17.5243 22.1094 15.8512C23.3166 14.1781 23.9767 12.1726 23.9994 10.1096C24.022 8.04653 23.4059 6.02701 22.2357 4.32785C21.0654 2.6287 19.3982 1.3331 17.4627 0.618678C15.5272 -0.0957453 13.4181 -0.194019 11.4245 0.337329C9.43098 0.868678 7.65056 2.00364 6.32738 3.58661C5.0042 5.16958 4.20302 7.12307 4.03369 9.17927L5.15622 9.27171C5.30648 7.44711 6.01742 5.71365 7.19157 4.30897C8.36571 2.90429 9.9456 1.89717 11.7146 1.42567C13.4836 0.954164 15.3552 1.04137 17.0727 1.67533C18.7902 2.30928 20.2696 3.45895 21.308 4.96672C22.3465 6.4745 22.8932 8.26656 22.8731 10.0972C22.853 11.9279 22.2672 13.7075 21.196 15.1922C20.1248 16.6769 18.6205 17.7938 16.8896 18.39C15.1586 18.9862 13.2856 19.0324 11.5273 18.5222L11.2134 19.6039Z" fill="black"/>
<path d="M10.1597 17.018C11.6726 17.8459 13.4126 18.1627 15.1203 17.9212C16.828 17.6796 18.4119 16.8927 19.6359 15.6777C20.8599 14.4627 21.6585 12.8847 21.9126 11.1788C22.1668 9.47301 21.8628 7.73072 21.0461 6.21168C20.2294 4.69265 18.9437 3.47821 17.3806 2.74941C15.8175 2.0206 14.0607 1.81644 12.3721 2.16737C10.6836 2.5183 9.1536 3.40552 8.01032 4.69679C6.86704 5.98805 6.17166 7.61421 6.02783 9.33287L6.92576 9.40801C7.05338 7.88293 7.67044 6.43993 8.68495 5.2941C9.69946 4.14828 11.0571 3.36099 12.5555 3.04958C14.0539 2.73818 15.6128 2.91934 16.9998 3.56606C18.3869 4.21278 19.5278 5.29043 20.2525 6.63838C20.9772 7.98632 21.2469 9.53237 21.0214 11.0461C20.7959 12.5598 20.0872 13.9601 19.0011 15.0382C17.9149 16.1164 16.5094 16.8147 14.9941 17.029C13.4788 17.2433 11.9348 16.9622 10.5922 16.2275L10.1597 17.018Z" fill="black"/>
<path fill-rule="evenodd" clip-rule="evenodd" d="M13.5 5.5H14.5V10.7597L16.8123 12.6096L16.1877 13.3904L13.5 11.2403V5.5Z" fill="black"/>
</g>
<defs>
<clipPath id="clip0_2645_5171">
<rect width="24" height="24" fill="white"/>
</clipPath>
</defs>
</svg>
